<svg width="24" height="24" viewBox="0 0 24 24" fill="none" xmlns="http://www.w3.org/2000/svg">
<rect width="24" height="24" fill="white"/>
<path fill-rule="evenodd" clip-rule="evenodd" d="M10 24V17.6586C7.66961 16.8349 6 14.6124 6 12C6 9.38756 7.66961 7.16508 10 6.34141V0H14V6.34141C16.3304 7.16508 18 9.38756 18 12C18 14.6124 16.3304 16.8349 14 17.6586V24H10ZM12 15C13.6569 15 15 13.6569 15 12C15 10.3431 13.6569 9 12 9C10.3431 9 9 10.3431 9 12C9 13.6569 10.3431 15 12 15Z" fill="#7B61FF"/>
</svg>
