<svg width="24" height="24" viewBox="0 0 24 24" fill="none" xmlns="http://www.w3.org/2000/svg">
<g clip-path="url(#clip0_1333_564)">
<rect width="24" height="24" fill="white"/>
<path fill-rule="evenodd" clip-rule="evenodd" d="M18 12C18 9.38756 16.3304 7.16508 14 6.34141L14 0L10 1.78814e-07L10 6.34141C7.66962 7.16508 6 9.38756 6 12C6 15.3137 8.68629 18 12 18C15.3137 18 18 15.3137 18 12ZM12 15C13.6569 15 15 13.6569 15 12C15 10.3431 13.6569 9 12 9C10.3431 9 9 10.3431 9 12C9 13.6569 10.3431 15 12 15Z" fill="#7B61FF"/>
</g>
<defs>
<clipPath id="clip0_1333_564">
<rect width="24" height="24" fill="white"/>
</clipPath>
</defs>
</svg>
